<?xml version="1.0" encoding="iso-8859-1"?>
<!-- Uploaded to: SVG Repo, www.svgrepo.com, Generator: SVG Repo Mixer Tools -->
<svg fill="#000000" height="800px" width="800px" version="1.1" id="Layer_1" xmlns="http://www.w3.org/2000/svg" xmlns:xlink="http://www.w3.org/1999/xlink" 
	 viewBox="0 0 463.001 463.001" xml:space="preserve">
<g>
	<g>
		<g>
			<path d="M462.955,394.681c-0.417-3.803-3.63-6.682-7.455-6.682H333.537c2.901-5.894,4.737-12.29,5.406-18.978L357.9,179.45
				c0.025-0.257,0.24-0.451,0.498-0.451h1.103c4.142,0,7.5-3.358,7.5-7.5c0-4.142-3.358-7.5-7.5-7.5H244.447
				c-5.571-4.971-12.91-8-20.946-8c-8.036,0-15.375,3.029-20.946,8h-98.294c-4.142,0-7.5,3.358-7.5,7.5c0,4.142,3.358,7.5,7.5,7.5
				c0.258,0,0.472,0.193,0.497,0.45l3.436,34.364c-3.924-1.194-8.042-1.814-12.275-1.814c-12.294,0-23.902,5.38-31.848,14.76
				c-7.947,9.38-11.345,21.715-9.324,33.842l4.746,28.478c3.276,19.655,20.116,33.92,40.042,33.92c6.738,0,13.284-1.683,19.1-4.785
				l5.081,50.808c0.668,6.687,2.504,13.084,5.406,18.978H7.5c-3.825,0-7.038,2.879-7.455,6.682c-0.417,3.803,2.094,7.31,5.828,8.14
				l144,32c0.534,0.119,1.08,0.179,1.627,0.179h160c0.547,0,1.093-0.06,1.627-0.179l144-32
				C460.862,401.991,463.373,398.483,462.955,394.681z M99.535,307.999c-12.563,0-23.18-8.994-25.245-21.386l-4.746-28.478
				c-1.295-7.769,0.882-15.671,5.973-21.68c5.09-6.01,12.527-9.456,20.479-9.456c4.975,0,9.729,1.355,13.909,3.914l7.026,70.262
				C112.221,305.539,106.017,307.999,99.535,307.999z M324.017,367.529c-0.752,7.517-3.517,14.531-8.044,20.47H287v-56.5
				c0-2.841-1.605-5.438-4.146-6.708L255,310.864v-83.865h83.07L324.017,367.529z M342.87,178.999l-3.3,33H255v-24.5
				c0-2.945-0.415-5.794-1.175-8.5H342.87z M247.5,323.884l24.5,12.25v3.865h-49v-3.865L247.5,323.884z M272,354.999v33h-49v-33H272
				z M207.001,187.499c-0.001-3.111,0.881-6.014,2.384-8.5h28.231c1.503,2.486,2.385,5.389,2.385,8.5v24.5h-33V187.499z
				 M208,262.606v21.393h-17v-21.394l8.5-8.499L208,262.606z M123.087,211.999l-3.3-33h73.388c-0.76,2.706-1.175,5.555-1.175,8.5
				v24.5H123.087z M124.588,226.999H192v13.394l-13.803,13.803c-1.407,1.406-2.197,3.314-2.197,5.303v32c0,4.142,3.358,7.5,7.5,7.5
				h32c4.142,0,7.5-3.358,7.5-7.5v-32c0-1.989-0.79-3.897-2.197-5.303L207,240.393v-13.394h33v83.865l-27.854,13.927
				c-2.541,1.27-4.146,3.867-4.146,6.708v56.5h-61.316c-4.526-5.939-7.292-12.953-8.043-20.47L124.588,226.999z M310.677,419.999
				H152.324l-76.5-17h311.354L310.677,419.999z"/>
			<polygon points="223.506,135.527 221.553,137.087 217.652,140.214 			"/>
			<path d="M208,115.535c0,12.625,5.348,19.305,9.646,24.672l3.907-3.12l7.802-6.255c-3.689-4.608-6.354-7.937-6.354-15.297
				c0-7.37,2.667-10.704,6.357-15.317C233.653,94.847,239,88.163,239,75.531c0-12.637-5.346-19.325-9.642-24.699
				C225.667,46.214,223,42.878,223,35.5c0-4.142-3.358-7.5-7.5-7.5c-4.142,0-7.5,3.358-7.5,7.5c0,12.637,5.346,19.325,9.642,24.699
				c3.691,4.618,6.358,7.954,6.358,15.333c0,7.37-2.667,10.704-6.357,15.317C213.348,96.219,208,102.903,208,115.535z"/>
			<path d="M248.485,123.026c2.381,0,4.504-1.111,5.879-2.842C259.776,113.418,271,99.361,271,75.53
				c0-9.68-1.861-18.805-5.532-27.123c-1.672-3.789-6.1-5.506-9.89-3.833c-3.79,1.672-5.505,6.1-3.833,9.89
				C254.569,60.861,256,67.949,256,75.53c0,18.514-8.295,28.964-13.303,35.226c-1.07,1.296-1.713,2.958-1.713,4.771
				C240.985,119.669,244.343,123.026,248.485,123.026z"/>
			<path d="M183.5,123.034c4.142,0,7.5-3.358,7.5-7.5c0-18.59,8.368-29.051,13.369-35.304c0.135-0.169,0.263-0.344,0.383-0.524
				c1.68-2.519,1.672-5.852-0.008-8.371c-2.297-3.446-6.954-4.377-10.4-2.08c-0.888,0.592-1.608,1.34-2.15,2.184
				C186.637,78.404,176,92.341,176,115.534C176,119.676,179.358,123.034,183.5,123.034z"/>
		</g>
	</g>
</g>
</svg>